<svg version="1.1" id="Layer_1" xmlns="http://www.w3.org/2000/svg" xmlns:xlink="http://www.w3.org/1999/xlink" x="0px" y="0px"
	 width="100%" viewBox="0 0 1408 1344" enable-background="new 0 0 1408 1344" xml:space="preserve">
<path fill="#FFFFFF" opacity="1.000000" stroke="none" 
	d="
M983.000000,1345.000000 
	C655.333313,1345.000000 328.166656,1345.000000 1.000000,1345.000000 
	C1.000000,897.000000 1.000000,449.000000 1.000000,1.000000 
	C470.333344,1.000000 939.666687,1.000000 1409.000000,1.000000 
	C1409.000000,449.000000 1409.000000,897.000000 1409.000000,1345.000000 
	C1267.166626,1345.000000 1125.333374,1345.000000 983.000000,1345.000000 
M697.499878,1135.645752 
	C771.978516,1135.655762 846.457520,1135.530029 920.935669,1135.725708 
	C967.088928,1135.846924 1013.240967,1136.454834 1059.393555,1136.846802 
	C1078.519897,1137.009277 1096.946045,1133.147217 1113.749878,1124.285522 
	C1142.323242,1109.217285 1166.095337,1088.524902 1182.523193,1060.250610 
	C1191.472900,1044.847046 1197.593750,1028.428223 1197.651855,1010.354126 
	C1197.999512,902.372009 1198.462891,794.389526 1198.455322,686.407166 
	C1198.446655,562.426941 1198.103394,438.446136 1197.524292,314.467407 
	C1197.473877,303.683502 1196.207153,292.347656 1192.689697,282.249023 
	C1184.341064,258.280212 1172.043091,236.449020 1153.450439,218.407227 
	C1135.642944,201.127594 1114.788818,190.076950 1090.953125,183.956070 
	C1074.955200,179.847870 1058.630615,179.479675 1042.340698,179.449814 
	C955.240173,179.290176 868.139099,179.410751 781.038269,179.413742 
	C748.375244,179.414871 715.711853,179.448959 683.049255,179.312500 
	C612.765991,179.018860 542.483459,178.480362 472.200012,178.334534 
	C439.256927,178.266174 406.310028,178.732071 373.370544,179.291534 
	C366.280365,179.411957 358.849182,179.871857 352.200287,182.068176 
	C321.232056,192.297897 294.649933,209.532303 274.061951,235.010117 
	C261.314606,250.785034 251.911987,268.666931 249.493042,289.082092 
	C247.680954,304.375519 246.997574,319.885651 247.003311,335.298859 
	C247.069443,512.707825 247.297211,690.116943 247.640549,867.525696 
	C247.733978,915.801514 248.162308,964.079407 248.914413,1012.348877 
	C249.054810,1021.359070 250.529083,1030.603149 253.007324,1039.276489 
	C261.849823,1070.223511 280.625549,1093.920410 307.998810,1110.658813 
	C326.018188,1121.677368 344.830841,1131.306396 366.311981,1133.028320 
	C386.514343,1134.647461 406.796692,1135.610474 427.060913,1136.021484 
	C447.704987,1136.440308 468.369690,1135.717407 489.025604,1135.697632 
	C558.183594,1135.631470 627.341675,1135.656006 697.499878,1135.645752 
z"/>
<path fill="#05A800" opacity="1.000000" stroke="none" 
	d="
M696.999817,1135.645752 
	C627.341675,1135.656006 558.183594,1135.631470 489.025604,1135.697632 
	C468.369690,1135.717407 447.704987,1136.440308 427.060913,1136.021484 
	C406.796692,1135.610474 386.514343,1134.647461 366.311981,1133.028320 
	C344.830841,1131.306396 326.018188,1121.677368 307.998810,1110.658813 
	C280.625549,1093.920410 261.849823,1070.223511 253.007324,1039.276489 
	C250.529083,1030.603149 249.054810,1021.359070 248.914413,1012.348877 
	C248.162308,964.079407 247.733978,915.801514 247.640549,867.525696 
	C247.297211,690.116943 247.069443,512.707825 247.003311,335.298859 
	C246.997574,319.885651 247.680954,304.375519 249.493042,289.082092 
	C251.911987,268.666931 261.314606,250.785034 274.061951,235.010117 
	C294.649933,209.532303 321.232056,192.297897 352.200287,182.068176 
	C358.849182,179.871857 366.280365,179.411957 373.370544,179.291534 
	C406.310028,178.732071 439.256927,178.266174 472.200012,178.334534 
	C542.483459,178.480362 612.765991,179.018860 683.049255,179.312500 
	C715.711853,179.448959 748.375244,179.414871 781.038269,179.413742 
	C868.139099,179.410751 955.240173,179.290176 1042.340698,179.449814 
	C1058.630615,179.479675 1074.955200,179.847870 1090.953125,183.956070 
	C1114.788818,190.076950 1135.642944,201.127594 1153.450439,218.407227 
	C1172.043091,236.449020 1184.341064,258.280212 1192.689697,282.249023 
	C1196.207153,292.347656 1197.473877,303.683502 1197.524292,314.467407 
	C1198.103394,438.446136 1198.446655,562.426941 1198.455322,686.407166 
	C1198.462891,794.389526 1197.999512,902.372009 1197.651855,1010.354126 
	C1197.593750,1028.428223 1191.472900,1044.847046 1182.523193,1060.250610 
	C1166.095337,1088.524902 1142.323242,1109.217285 1113.749878,1124.285522 
	C1096.946045,1133.147217 1078.519897,1137.009277 1059.393555,1136.846802 
	C1013.240967,1136.454834 967.088928,1135.846924 920.935669,1135.725708 
	C846.457520,1135.530029 771.978516,1135.655762 696.999817,1135.645752 
M659.499817,885.604919 
	C685.498474,885.610474 711.497742,885.738708 737.495605,885.596863 
	C798.802673,885.262329 860.152710,887.212830 921.379089,882.642578 
	C927.806458,882.162842 935.070129,880.831909 940.190125,877.329346 
	C951.917358,869.306946 962.728638,859.187622 966.592529,845.146057 
	C970.032837,832.643799 971.914429,819.310913 971.943787,806.338867 
	C972.101196,736.860718 971.652527,667.378723 970.921448,597.903320 
	C970.793396,585.738708 969.389099,573.356567 966.695679,561.501770 
	C962.221008,541.807312 946.303284,522.601990 920.422302,522.950989 
	C909.287231,523.101196 898.132019,522.103333 886.992981,521.497070 
	C879.132568,521.069214 878.939636,520.454407 878.599243,512.584351 
	C878.017151,499.128326 877.666626,485.617889 876.119202,472.257690 
	C873.323730,448.122345 859.512634,434.868164 835.254578,433.296265 
	C811.176025,431.735992 787.038147,430.446014 762.918884,430.304382 
	C721.657654,430.062042 680.339417,428.358246 639.161377,432.814575 
	C623.301208,434.530945 607.339661,435.571381 591.608337,438.075806 
	C586.158997,438.943359 578.830261,442.047546 576.620117,446.329224 
	C571.850159,455.569763 568.323608,466.045715 567.040894,476.358551 
	C564.930786,493.323822 564.744629,510.552948 564.230042,527.685303 
	C563.689819,545.671509 563.810669,563.676636 563.446777,581.669495 
	C563.317444,588.066223 561.219666,589.820984 555.046021,590.242615 
	C536.641479,591.499634 518.177979,592.699280 500.939209,600.118042 
	C478.621887,609.722534 474.712128,615.014832 474.380432,634.115601 
	C473.301270,696.258057 473.274017,758.420898 473.178833,820.576416 
	C473.160339,832.654419 474.011597,844.825989 480.457611,855.770386 
	C486.750854,866.455322 494.012970,876.514648 506.699524,879.352722 
	C518.930054,882.088745 531.538513,884.203796 544.030762,884.501404 
	C582.174194,885.409851 620.341675,885.311401 659.499817,885.604919 
z"/>
<path fill="#FDFEFD" opacity="1.000000" stroke="none" 
	d="
M658.999756,885.604858 
	C620.341675,885.311401 582.174194,885.409851 544.030762,884.501404 
	C531.538513,884.203796 518.930054,882.088745 506.699524,879.352722 
	C494.012970,876.514648 486.750854,866.455322 480.457611,855.770386 
	C474.011597,844.825989 473.160339,832.654419 473.178833,820.576416 
	C473.274017,758.420898 473.301270,696.258057 474.380432,634.115601 
	C474.712128,615.014832 478.621887,609.722534 500.939209,600.118042 
	C518.177979,592.699280 536.641479,591.499634 555.046021,590.242615 
	C561.219666,589.820984 563.317444,588.066223 563.446777,581.669495 
	C563.810669,563.676636 563.689819,545.671509 564.230042,527.685303 
	C564.744629,510.552948 564.930786,493.323822 567.040894,476.358551 
	C568.323608,466.045715 571.850159,455.569763 576.620117,446.329224 
	C578.830261,442.047546 586.158997,438.943359 591.608337,438.075806 
	C607.339661,435.571381 623.301208,434.530945 639.161377,432.814575 
	C680.339417,428.358246 721.657654,430.062042 762.918884,430.304382 
	C787.038147,430.446014 811.176025,431.735992 835.254578,433.296265 
	C859.512634,434.868164 873.323730,448.122345 876.119202,472.257690 
	C877.666626,485.617889 878.017151,499.128326 878.599243,512.584351 
	C878.939636,520.454407 879.132568,521.069214 886.992981,521.497070 
	C898.132019,522.103333 909.287231,523.101196 920.422302,522.950989 
	C946.303284,522.601990 962.221008,541.807312 966.695679,561.501770 
	C969.389099,573.356567 970.793396,585.738708 970.921448,597.903320 
	C971.652527,667.378723 972.101196,736.860718 971.943787,806.338867 
	C971.914429,819.310913 970.032837,832.643799 966.592529,845.146057 
	C962.728638,859.187622 951.917358,869.306946 940.190125,877.329346 
	C935.070129,880.831909 927.806458,882.162842 921.379089,882.642578 
	C860.152710,887.212830 798.802673,885.262329 737.495605,885.596863 
	C711.497742,885.738708 685.498474,885.610474 658.999756,885.604858 
M786.499634,476.125214 
	C741.853333,475.813751 697.207092,475.481323 652.560547,475.209625 
	C644.231812,475.158905 635.900574,475.468384 627.572388,475.396149 
	C620.669983,475.336273 615.540161,478.062592 613.148987,484.594482 
	C611.794861,488.293488 610.851074,492.303253 610.633240,496.223694 
	C610.201965,503.984650 610.318665,511.781097 610.355957,519.562195 
	C610.548889,559.857117 611.096802,600.153198 610.930359,640.446411 
	C610.739136,686.733032 609.943970,733.017334 609.362793,779.302063 
	C609.314758,783.125244 608.812805,786.940674 608.666809,790.765198 
	C608.146179,804.405151 607.567810,818.044800 607.263977,831.690186 
	C607.136658,837.403381 608.492615,838.801331 615.272400,839.169739 
	C624.244690,839.657349 633.251953,839.521912 642.244629,839.605347 
	C649.961975,839.676941 651.273804,837.858765 651.911804,830.045593 
	C653.350647,812.423828 654.276672,794.670349 657.268250,777.290039 
	C660.367737,759.283569 669.851379,743.833740 686.176147,735.112610 
	C711.310974,721.684753 737.087402,722.831848 761.335205,737.929443 
	C774.596558,746.186401 784.424561,757.997375 787.965881,773.793823 
	C790.887024,786.823975 791.838074,800.061279 790.622559,813.423462 
	C790.065430,819.547485 789.687500,825.695190 789.476074,831.840698 
	C789.320496,836.358337 790.857483,839.265259 796.295044,839.321472 
	C805.271973,839.414124 814.239990,840.189941 823.216736,840.553711 
	C830.342224,840.842468 832.054016,839.525513 832.708679,832.371338 
	C833.510803,823.605713 834.293457,814.799561 834.322510,806.008362 
	C834.506104,750.528015 834.579834,695.046814 834.490051,639.566223 
	C834.409973,590.083801 834.075500,540.601746 833.844055,491.119598 
	C833.803040,482.348663 831.333984,479.353973 822.738464,478.611908 
	C811.007996,477.599182 799.247131,476.938507 786.499634,476.125214 
M881.930176,723.493286 
	C882.247070,730.786194 882.880920,738.081604 882.824890,745.371643 
	C882.607361,773.660522 882.129761,801.947327 881.841248,830.235840 
	C881.759644,838.234375 885.236389,841.202393 892.983582,839.697449 
	C898.931580,838.542053 904.824524,837.055786 910.681885,835.491760 
	C921.177368,832.689331 924.317749,829.314209 925.073303,819.033386 
	C926.056641,805.654541 927.183472,792.244446 927.209900,778.845703 
	C927.266296,750.244385 926.656799,721.641724 926.314941,693.039673 
	C925.949097,662.437439 925.564392,631.835266 925.218689,601.232788 
	C925.147156,594.901794 925.221069,588.569336 925.208130,582.237549 
	C925.195923,576.257324 921.762146,572.219604 915.816284,571.288696 
	C911.389954,570.595703 906.962830,569.829224 902.506226,569.426270 
	C895.129639,568.759216 887.729004,568.358521 880.307556,567.843445 
	C880.851135,619.947815 881.385986,671.221619 881.930176,723.493286 
M564.043213,661.574951 
	C564.454712,655.614502 565.051514,649.659058 565.214844,643.691833 
	C565.330200,639.479492 562.746826,635.002441 557.460449,635.701355 
	C546.462646,637.155334 535.535339,639.146057 524.534302,640.570496 
	C519.937134,641.165771 518.853333,643.709106 518.866272,647.685059 
	C518.884644,653.344360 518.650269,659.004272 518.658142,664.663757 
	C518.734009,719.102478 518.818176,773.541260 518.980835,827.979797 
	C518.991272,831.466003 520.274048,834.432983 524.361511,835.185547 
	C533.449158,836.858704 542.495544,838.773926 551.612305,840.262634 
	C555.977661,840.975464 558.534424,838.456299 559.041931,834.173462 
	C559.803894,827.743530 560.746582,821.301025 560.939758,814.843750 
	C561.745911,787.892700 562.385925,760.935913 562.922119,733.977905 
	C563.395630,710.172791 563.650696,686.363342 564.043213,661.574951 
M742.214783,783.580750 
	C734.881714,772.973511 718.304688,771.933472 707.806030,778.779663 
	C706.163269,779.850952 704.644653,782.020630 704.235168,783.932251 
	C700.839966,799.782227 698.288452,815.740234 698.630249,832.055542 
	C698.713440,836.029724 700.183533,837.840820 704.046570,838.149048 
	C713.810425,838.927979 723.554443,840.003723 733.328552,840.594849 
	C743.816956,841.229187 744.487122,841.119751 745.610596,830.945801 
	C747.341675,815.269958 746.897705,799.558716 742.214783,783.580750 
z"/>
<path fill="#07A902" opacity="1.000000" stroke="none" 
	d="
M786.999512,476.126038 
	C799.247131,476.938507 811.007996,477.599182 822.738464,478.611908 
	C831.333984,479.353973 833.803040,482.348663 833.844055,491.119598 
	C834.075500,540.601746 834.409973,590.083801 834.490051,639.566223 
	C834.579834,695.046814 834.506104,750.528015 834.322510,806.008362 
	C834.293457,814.799561 833.510803,823.605713 832.708679,832.371338 
	C832.054016,839.525513 830.342224,840.842468 823.216736,840.553711 
	C814.239990,840.189941 805.271973,839.414124 796.295044,839.321472 
	C790.857483,839.265259 789.320496,836.358337 789.476074,831.840698 
	C789.687500,825.695190 790.065430,819.547485 790.622559,813.423462 
	C791.838074,800.061279 790.887024,786.823975 787.965881,773.793823 
	C784.424561,757.997375 774.596558,746.186401 761.335205,737.929443 
	C737.087402,722.831848 711.310974,721.684753 686.176147,735.112610 
	C669.851379,743.833740 660.367737,759.283569 657.268250,777.290039 
	C654.276672,794.670349 653.350647,812.423828 651.911804,830.045593 
	C651.273804,837.858765 649.961975,839.676941 642.244629,839.605347 
	C633.251953,839.521912 624.244690,839.657349 615.272400,839.169739 
	C608.492615,838.801331 607.136658,837.403381 607.263977,831.690186 
	C607.567810,818.044800 608.146179,804.405151 608.666809,790.765198 
	C608.812805,786.940674 609.314758,783.125244 609.362793,779.302063 
	C609.943970,733.017334 610.739136,686.733032 610.930359,640.446411 
	C611.096802,600.153198 610.548889,559.857117 610.355957,519.562195 
	C610.318665,511.781097 610.201965,503.984650 610.633240,496.223694 
	C610.851074,492.303253 611.794861,488.293488 613.148987,484.594482 
	C615.540161,478.062592 620.669983,475.336273 627.572388,475.396149 
	C635.900574,475.468384 644.231812,475.158905 652.560547,475.209625 
	C697.207092,475.481323 741.853333,475.813751 786.999512,476.126038 
M679.607178,543.398804 
	C672.518616,543.977295 665.430054,544.555847 657.466187,545.205750 
	C656.796814,559.678467 656.163208,573.377625 655.469604,588.374268 
	C699.882263,588.374268 743.280823,588.374268 786.565247,588.374268 
	C789.658752,578.830627 789.709900,558.755798 787.899231,549.984924 
	C787.058105,545.910706 785.237427,544.320068 780.977661,544.404175 
	C771.334045,544.594849 761.680786,544.324585 752.031799,544.217102 
	C728.215210,543.951721 704.398804,543.672485 679.607178,543.398804 
M777.713501,637.419861 
	C768.417114,637.129211 759.118652,636.541565 749.824829,636.609070 
	C729.869690,636.753967 709.914795,637.144043 689.964233,637.621948 
	C680.658142,637.844849 671.357544,638.426331 662.064697,639.008728 
	C658.585693,639.226868 655.575134,640.073425 655.836487,644.828064 
	C656.398499,655.055481 656.565857,665.305115 657.181030,675.528442 
	C657.238525,676.483948 659.275085,677.992920 660.493408,678.100037 
	C670.401367,678.970886 680.328491,680.055542 690.259094,680.156006 
	C717.216248,680.428955 744.178223,680.290771 771.137878,680.202515 
	C774.934387,680.190063 778.729187,679.550293 782.523926,679.191284 
	C785.961731,678.866089 787.860046,677.010498 788.210449,673.541382 
	C788.860779,667.104004 789.849243,660.685120 790.160889,654.232605 
	C790.714050,642.783691 789.432800,641.180542 777.713501,637.419861 
z"/>
<path fill="#06A801" opacity="1.000000" stroke="none" 
	d="
M881.925537,722.994385 
	C881.385986,671.221619 880.851135,619.947815 880.307556,567.843445 
	C887.729004,568.358521 895.129639,568.759216 902.506226,569.426270 
	C906.962830,569.829224 911.389954,570.595703 915.816284,571.288696 
	C921.762146,572.219604 925.195923,576.257324 925.208130,582.237549 
	C925.221069,588.569336 925.147156,594.901794 925.218689,601.232788 
	C925.564392,631.835266 925.949097,662.437439 926.314941,693.039673 
	C926.656799,721.641724 927.266296,750.244385 927.209900,778.845703 
	C927.183472,792.244446 926.056641,805.654541 925.073303,819.033386 
	C924.317749,829.314209 921.177368,832.689331 910.681885,835.491760 
	C904.824524,837.055786 898.931580,838.542053 892.983582,839.697449 
	C885.236389,841.202393 881.759644,838.234375 881.841248,830.235840 
	C882.129761,801.947327 882.607361,773.660522 882.824890,745.371643 
	C882.880920,738.081604 882.247070,730.786194 881.925537,722.994385 
z"/>
<path fill="#07A902" opacity="1.000000" stroke="none" 
	d="
M564.022705,662.065430 
	C563.650696,686.363342 563.395630,710.172791 562.922119,733.977905 
	C562.385925,760.935913 561.745911,787.892700 560.939758,814.843750 
	C560.746582,821.301025 559.803894,827.743530 559.041931,834.173462 
	C558.534424,838.456299 555.977661,840.975464 551.612305,840.262634 
	C542.495544,838.773926 533.449158,836.858704 524.361511,835.185547 
	C520.274048,834.432983 518.991272,831.466003 518.980835,827.979797 
	C518.818176,773.541260 518.734009,719.102478 518.658142,664.663757 
	C518.650269,659.004272 518.884644,653.344360 518.866272,647.685059 
	C518.853333,643.709106 519.937134,641.165771 524.534302,640.570496 
	C535.535339,639.146057 546.462646,637.155334 557.460449,635.701355 
	C562.746826,635.002441 565.330200,639.479492 565.214844,643.691833 
	C565.051514,649.659058 564.454712,655.614502 564.022705,662.065430 
z"/>
<path fill="#07A902" opacity="1.000000" stroke="none" 
	d="
M742.465210,783.873413 
	C746.897705,799.558716 747.341675,815.269958 745.610596,830.945801 
	C744.487122,841.119751 743.816956,841.229187 733.328552,840.594849 
	C723.554443,840.003723 713.810425,838.927979 704.046570,838.149048 
	C700.183533,837.840820 698.713440,836.029724 698.630249,832.055542 
	C698.288452,815.740234 700.839966,799.782227 704.235168,783.932251 
	C704.644653,782.020630 706.163269,779.850952 707.806030,778.779663 
	C718.304688,771.933472 734.881714,772.973511 742.465210,783.873413 
z"/>
<path fill="#FBFEFB" opacity="1.000000" stroke="none" 
	d="
M680.094727,543.398804 
	C704.398804,543.672485 728.215210,543.951721 752.031799,544.217102 
	C761.680786,544.324585 771.334045,544.594849 780.977661,544.404175 
	C785.237427,544.320068 787.058105,545.910706 787.899231,549.984924 
	C789.709900,558.755798 789.658752,578.830627 786.565247,588.374268 
	C743.280823,588.374268 699.882263,588.374268 655.469604,588.374268 
	C656.163208,573.377625 656.796814,559.678467 657.466187,545.205750 
	C665.430054,544.555847 672.518616,543.977295 680.094727,543.398804 
z"/>
<path fill="#FDFEFD" opacity="1.000000" stroke="none" 
	d="
M778.138794,637.476929 
	C789.432800,641.180542 790.714050,642.783691 790.160889,654.232605 
	C789.849243,660.685120 788.860779,667.104004 788.210449,673.541382 
	C787.860046,677.010498 785.961731,678.866089 782.523926,679.191284 
	C778.729187,679.550293 774.934387,680.190063 771.137878,680.202515 
	C744.178223,680.290771 717.216248,680.428955 690.259094,680.156006 
	C680.328491,680.055542 670.401367,678.970886 660.493408,678.100037 
	C659.275085,677.992920 657.238525,676.483948 657.181030,675.528442 
	C656.565857,665.305115 656.398499,655.055481 655.836487,644.828064 
	C655.575134,640.073425 658.585693,639.226868 662.064697,639.008728 
	C671.357544,638.426331 680.658142,637.844849 689.964233,637.621948 
	C709.914795,637.144043 729.869690,636.753967 749.824829,636.609070 
	C759.118652,636.541565 768.417114,637.129211 778.138794,637.476929 
z"/>
</svg>